<mxfile host="65bd71144e">
    <diagram id="92sK6BHhl3LkJQ1Mc4ro" name="Page-1">
        <mxGraphModel dx="800" dy="424" grid="1" gridSize="10" guides="1" tooltips="1" connect="1" arrows="1" fold="1" page="1" pageScale="1" pageWidth="850" pageHeight="1100" math="0" shadow="0">
            <root>
                <mxCell id="0"/>
                <mxCell id="1" parent="0"/>
                <mxCell id="2" value="&lt;b&gt;MS-Forecast&lt;/b&gt;" style="swimlane;fontStyle=0;childLayout=stackLayout;horizontal=1;startSize=26;fillColor=none;horizontalStack=0;resizeParent=1;resizeParentMax=0;resizeLast=0;collapsible=1;marginBottom=0;html=1;" parent="1" vertex="1">
                    <mxGeometry x="550" y="80" width="140" height="130" as="geometry"/>
                </mxCell>
                <mxCell id="3" value="&lt;div&gt;&lt;font color=&quot;#000000&quot;&gt;Up_Temp( int X)&lt;/font&gt;&lt;/div&gt;&lt;div&gt;&lt;font color=&quot;#000000&quot;&gt;Down_Temp( int X)&lt;/font&gt;&lt;/div&gt;&lt;div&gt;&lt;font color=&quot;#000000&quot;&gt;Up_Humity( int X)&lt;/font&gt;&lt;/div&gt;&lt;div&gt;&lt;font color=&quot;#000000&quot;&gt;Down_Humity( int X)&lt;/font&gt;&lt;/div&gt;&lt;div&gt;&lt;font color=&quot;#000000&quot;&gt;Read_Temp&lt;/font&gt;&lt;/div&gt;&lt;div&gt;&lt;font color=&quot;#000000&quot;&gt;Read_Humity&lt;/font&gt;&lt;/div&gt;" style="text;strokeColor=none;fillColor=none;align=left;verticalAlign=top;spacingLeft=4;spacingRight=4;overflow=hidden;rotatable=0;points=[[0,0.5],[1,0.5]];portConstraint=eastwest;whiteSpace=wrap;html=1;" parent="2" vertex="1">
                    <mxGeometry y="26" width="140" height="104" as="geometry"/>
                </mxCell>
                <mxCell id="6" value="&lt;b&gt;Log&lt;/b&gt;" style="swimlane;fontStyle=0;childLayout=stackLayout;horizontal=1;startSize=26;fillColor=none;horizontalStack=0;resizeParent=1;resizeParentMax=0;resizeLast=0;collapsible=1;marginBottom=0;html=1;" parent="1" vertex="1">
                    <mxGeometry y="270" width="140" height="130" as="geometry">
                        <mxRectangle y="80" width="60" height="30" as="alternateBounds"/>
                    </mxGeometry>
                </mxCell>
                <mxCell id="7" value="Humidity(int)" style="text;strokeColor=none;fillColor=none;align=left;verticalAlign=top;spacingLeft=4;spacingRight=4;overflow=hidden;rotatable=0;points=[[0,0.5],[1,0.5]];portConstraint=eastwest;whiteSpace=wrap;html=1;" parent="6" vertex="1">
                    <mxGeometry y="26" width="140" height="26" as="geometry"/>
                </mxCell>
                <mxCell id="8" value="Temperature(int)" style="text;strokeColor=none;fillColor=none;align=left;verticalAlign=top;spacingLeft=4;spacingRight=4;overflow=hidden;rotatable=0;points=[[0,0.5],[1,0.5]];portConstraint=eastwest;whiteSpace=wrap;html=1;" parent="6" vertex="1">
                    <mxGeometry y="52" width="140" height="26" as="geometry"/>
                </mxCell>
                <mxCell id="9" value="Date(string)" style="text;strokeColor=none;fillColor=none;align=left;verticalAlign=top;spacingLeft=4;spacingRight=4;overflow=hidden;rotatable=0;points=[[0,0.5],[1,0.5]];portConstraint=eastwest;whiteSpace=wrap;html=1;" parent="6" vertex="1">
                    <mxGeometry y="78" width="140" height="26" as="geometry"/>
                </mxCell>
                <mxCell id="42" value="Time(string)" style="text;strokeColor=none;fillColor=none;align=left;verticalAlign=top;spacingLeft=4;spacingRight=4;overflow=hidden;rotatable=0;points=[[0,0.5],[1,0.5]];portConstraint=eastwest;whiteSpace=wrap;html=1;" parent="6" vertex="1">
                    <mxGeometry y="104" width="140" height="26" as="geometry"/>
                </mxCell>
                <mxCell id="10" value="&lt;b&gt;Notifier&lt;/b&gt;" style="swimlane;fontStyle=0;childLayout=stackLayout;horizontal=1;startSize=26;fillColor=none;horizontalStack=0;resizeParent=1;resizeParentMax=0;resizeLast=0;collapsible=1;marginBottom=0;html=1;" parent="1" vertex="1">
                    <mxGeometry x="180" y="320" width="140" height="104" as="geometry"/>
                </mxCell>
                <mxCell id="11" value="Notify(notification): void" style="text;strokeColor=none;fillColor=none;align=left;verticalAlign=top;spacingLeft=4;spacingRight=4;overflow=hidden;rotatable=0;points=[[0,0.5],[1,0.5]];portConstraint=eastwest;whiteSpace=wrap;html=1;" parent="10" vertex="1">
                    <mxGeometry y="26" width="140" height="26" as="geometry"/>
                </mxCell>
                <mxCell id="12" value="Item 2" style="text;strokeColor=none;fillColor=none;align=left;verticalAlign=top;spacingLeft=4;spacingRight=4;overflow=hidden;rotatable=0;points=[[0,0.5],[1,0.5]];portConstraint=eastwest;whiteSpace=wrap;html=1;" parent="10" vertex="1">
                    <mxGeometry y="52" width="140" height="26" as="geometry"/>
                </mxCell>
                <mxCell id="13" value="Item 3" style="text;strokeColor=none;fillColor=none;align=left;verticalAlign=top;spacingLeft=4;spacingRight=4;overflow=hidden;rotatable=0;points=[[0,0.5],[1,0.5]];portConstraint=eastwest;whiteSpace=wrap;html=1;" parent="10" vertex="1">
                    <mxGeometry y="78" width="140" height="26" as="geometry"/>
                </mxCell>
                <mxCell id="14" value="&lt;b&gt;Persistence_Handler&lt;/b&gt;" style="swimlane;fontStyle=0;childLayout=stackLayout;horizontal=1;startSize=26;fillColor=none;horizontalStack=0;resizeParent=1;resizeParentMax=0;resizeLast=0;collapsible=1;marginBottom=0;html=1;" parent="1" vertex="1">
                    <mxGeometry x="520" y="320" width="140" height="104" as="geometry"/>
                </mxCell>
                <mxCell id="15" value="Persist(log): void" style="text;strokeColor=none;fillColor=none;align=left;verticalAlign=top;spacingLeft=4;spacingRight=4;overflow=hidden;rotatable=0;points=[[0,0.5],[1,0.5]];portConstraint=eastwest;whiteSpace=wrap;html=1;" parent="14" vertex="1">
                    <mxGeometry y="26" width="140" height="26" as="geometry"/>
                </mxCell>
                <mxCell id="16" value="GetData(): log" style="text;strokeColor=none;fillColor=none;align=left;verticalAlign=top;spacingLeft=4;spacingRight=4;overflow=hidden;rotatable=0;points=[[0,0.5],[1,0.5]];portConstraint=eastwest;whiteSpace=wrap;html=1;" parent="14" vertex="1">
                    <mxGeometry y="52" width="140" height="26" as="geometry"/>
                </mxCell>
                <mxCell id="17" value="Item 3" style="text;strokeColor=none;fillColor=none;align=left;verticalAlign=top;spacingLeft=4;spacingRight=4;overflow=hidden;rotatable=0;points=[[0,0.5],[1,0.5]];portConstraint=eastwest;whiteSpace=wrap;html=1;" parent="14" vertex="1">
                    <mxGeometry y="78" width="140" height="26" as="geometry"/>
                </mxCell>
                <mxCell id="19" value="&lt;b&gt;Climate_Handler&lt;/b&gt;" style="swimlane;fontStyle=0;childLayout=stackLayout;horizontal=1;startSize=26;fillColor=none;horizontalStack=0;resizeParent=1;resizeParentMax=0;resizeLast=0;collapsible=1;marginBottom=0;html=1;" parent="1" vertex="1">
                    <mxGeometry x="355" y="200" width="140" height="104" as="geometry"/>
                </mxCell>
                <mxCell id="50" value="ActualHumity: int" style="text;strokeColor=none;fillColor=none;align=left;verticalAlign=top;spacingLeft=4;spacingRight=4;overflow=hidden;rotatable=0;points=[[0,0.5],[1,0.5]];portConstraint=eastwest;whiteSpace=wrap;html=1;" vertex="1" parent="19">
                    <mxGeometry y="26" width="140" height="26" as="geometry"/>
                </mxCell>
                <mxCell id="49" value="ActualTemp: int" style="text;strokeColor=none;fillColor=none;align=left;verticalAlign=top;spacingLeft=4;spacingRight=4;overflow=hidden;rotatable=0;points=[[0,0.5],[1,0.5]];portConstraint=eastwest;whiteSpace=wrap;html=1;" vertex="1" parent="19">
                    <mxGeometry y="52" width="140" height="26" as="geometry"/>
                </mxCell>
                <mxCell id="20" value="Menu(): void" style="text;strokeColor=none;fillColor=none;align=left;verticalAlign=top;spacingLeft=4;spacingRight=4;overflow=hidden;rotatable=0;points=[[0,0.5],[1,0.5]];portConstraint=eastwest;whiteSpace=wrap;html=1;" parent="19" vertex="1">
                    <mxGeometry y="78" width="140" height="26" as="geometry"/>
                </mxCell>
                <mxCell id="24" value="" style="endArrow=diamondThin;endFill=0;endSize=24;html=1;exitX=0.5;exitY=0;exitDx=0;exitDy=0;entryX=0;entryY=0.5;entryDx=0;entryDy=0;" parent="1" source="10" target="49" edge="1">
                    <mxGeometry width="160" relative="1" as="geometry">
                        <mxPoint x="40" y="290" as="sourcePoint"/>
                        <mxPoint x="355" y="291" as="targetPoint"/>
                        <Array as="points">
                            <mxPoint x="250" y="265"/>
                        </Array>
                    </mxGeometry>
                </mxCell>
                <mxCell id="26" value="Log_Handler" style="swimlane;fontStyle=1;align=center;verticalAlign=top;childLayout=stackLayout;horizontal=1;startSize=26;horizontalStack=0;resizeParent=1;resizeParentMax=0;resizeLast=0;collapsible=1;marginBottom=0;whiteSpace=wrap;html=1;" parent="1" vertex="1">
                    <mxGeometry x="140" y="80" width="160" height="130" as="geometry"/>
                </mxCell>
                <mxCell id="27" value="+ field: type" style="text;strokeColor=none;fillColor=none;align=left;verticalAlign=top;spacingLeft=4;spacingRight=4;overflow=hidden;rotatable=0;points=[[0,0.5],[1,0.5]];portConstraint=eastwest;whiteSpace=wrap;html=1;" parent="26" vertex="1">
                    <mxGeometry y="26" width="160" height="26" as="geometry"/>
                </mxCell>
                <mxCell id="28" value="" style="line;strokeWidth=1;fillColor=none;align=left;verticalAlign=middle;spacingTop=-1;spacingLeft=3;spacingRight=3;rotatable=0;labelPosition=right;points=[];portConstraint=eastwest;strokeColor=inherit;" parent="26" vertex="1">
                    <mxGeometry y="52" width="160" height="8" as="geometry"/>
                </mxCell>
                <mxCell id="29" value="+ AddToLog(int, int, string, string): void" style="text;strokeColor=none;fillColor=none;align=left;verticalAlign=top;spacingLeft=4;spacingRight=4;overflow=hidden;rotatable=0;points=[[0,0.5],[1,0.5]];portConstraint=eastwest;whiteSpace=wrap;html=1;" parent="26" vertex="1">
                    <mxGeometry y="60" width="160" height="40" as="geometry"/>
                </mxCell>
                <mxCell id="45" value="+ GetLog(log): void" style="text;strokeColor=none;fillColor=none;align=left;verticalAlign=top;spacingLeft=4;spacingRight=4;overflow=hidden;rotatable=0;points=[[0,0.5],[1,0.5]];portConstraint=eastwest;whiteSpace=wrap;html=1;" parent="26" vertex="1">
                    <mxGeometry y="100" width="160" height="30" as="geometry"/>
                </mxCell>
                <mxCell id="32" value="&lt;b&gt;Notification&lt;/b&gt;" style="swimlane;fontStyle=0;childLayout=stackLayout;horizontal=1;startSize=26;fillColor=none;horizontalStack=0;resizeParent=1;resizeParentMax=0;resizeLast=0;collapsible=1;marginBottom=0;whiteSpace=wrap;html=1;" parent="1" vertex="1">
                    <mxGeometry x="180" y="490" width="140" height="52" as="geometry"/>
                </mxCell>
                <mxCell id="33" value="Message" style="text;strokeColor=none;fillColor=none;align=left;verticalAlign=top;spacingLeft=4;spacingRight=4;overflow=hidden;rotatable=0;points=[[0,0.5],[1,0.5]];portConstraint=eastwest;whiteSpace=wrap;html=1;" parent="32" vertex="1">
                    <mxGeometry y="26" width="140" height="26" as="geometry"/>
                </mxCell>
                <mxCell id="36" value="" style="endArrow=diamondThin;endFill=0;endSize=24;html=1;exitX=0.5;exitY=0;exitDx=0;exitDy=0;entryX=0.499;entryY=1.062;entryDx=0;entryDy=0;entryPerimeter=0;" parent="1" source="32" target="13" edge="1">
                    <mxGeometry width="160" relative="1" as="geometry">
                        <mxPoint x="270" y="470" as="sourcePoint"/>
                        <mxPoint x="430" y="470" as="targetPoint"/>
                    </mxGeometry>
                </mxCell>
                <mxCell id="37" value="Use" style="endArrow=open;endSize=12;dashed=1;html=1;exitX=1;exitY=0.5;exitDx=0;exitDy=0;entryX=0.496;entryY=1.004;entryDx=0;entryDy=0;entryPerimeter=0;" parent="1" source="49" target="3" edge="1">
                    <mxGeometry width="160" relative="1" as="geometry">
                        <mxPoint x="495" y="291" as="sourcePoint"/>
                        <mxPoint x="655" y="260" as="targetPoint"/>
                        <Array as="points">
                            <mxPoint x="619" y="265"/>
                        </Array>
                    </mxGeometry>
                </mxCell>
                <mxCell id="39" value="" style="endArrow=diamondThin;endFill=0;endSize=24;html=1;exitX=0;exitY=0.5;exitDx=0;exitDy=0;entryX=0.534;entryY=1.123;entryDx=0;entryDy=0;entryPerimeter=0;" parent="1" source="16" edge="1">
                    <mxGeometry width="160" relative="1" as="geometry">
                        <mxPoint x="345" y="360" as="sourcePoint"/>
                        <mxPoint x="429.76" y="307.198" as="targetPoint"/>
                        <Array as="points">
                            <mxPoint x="430" y="385"/>
                        </Array>
                    </mxGeometry>
                </mxCell>
                <mxCell id="46" value="" style="endArrow=diamondThin;endFill=0;endSize=24;html=1;exitX=0.5;exitY=0;exitDx=0;exitDy=0;entryX=0;entryY=0.5;entryDx=0;entryDy=0;" parent="1" source="6" target="45" edge="1">
                    <mxGeometry width="160" relative="1" as="geometry">
                        <mxPoint x="30" y="230" as="sourcePoint"/>
                        <mxPoint x="190" y="230" as="targetPoint"/>
                        <Array as="points">
                            <mxPoint x="70" y="195"/>
                        </Array>
                    </mxGeometry>
                </mxCell>
                <mxCell id="48" value="" style="endArrow=diamondThin;endFill=0;endSize=24;html=1;exitX=1;exitY=0.5;exitDx=0;exitDy=0;entryX=0;entryY=0.5;entryDx=0;entryDy=0;" parent="1" source="45" target="50" edge="1">
                    <mxGeometry width="160" relative="1" as="geometry">
                        <mxPoint x="190" y="251.5" as="sourcePoint"/>
                        <mxPoint x="350" y="251.5" as="targetPoint"/>
                        <Array as="points">
                            <mxPoint x="310" y="240"/>
                        </Array>
                    </mxGeometry>
                </mxCell>
            </root>
        </mxGraphModel>
    </diagram>
</mxfile>